<?xml version="1.0" encoding="utf-8"?>
<!-- Generator: Adobe Illustrator 16.0.3, SVG Export Plug-In . SVG Version: 6.00 Build 0)  -->
<!DOCTYPE svg PUBLIC "-//W3C//DTD SVG 1.1//EN" "http://www.w3.org/Graphics/SVG/1.1/DTD/svg11.dtd">
<svg version="1.1" id="Mine" xmlns="http://www.w3.org/2000/svg" xmlns:xlink="http://www.w3.org/1999/xlink" x="0px" y="0px"
	 width="449.333px" height="276.667px" viewBox="0 0 449.333 276.667" enable-background="new 0 0 449.333 276.667"
	 xml:space="preserve">
<g id="third_front">
	<linearGradient id="SVGID_1_" gradientUnits="userSpaceOnUse" x1="15.6641" y1="158.5146" x2="187.9209" y2="158.5146">
		<stop  offset="0" style="stop-color:#45B799"/>
		<stop  offset="1" style="stop-color:#55BF9A"/>
	</linearGradient>
	<path fill="url(#SVGID_1_)" d="M184.999,227.823c0,0-29.417-27.741-53.417-41.241s-70.25-38.25-112.5-40.75
		c-1.44-0.902-3.418-1.625-3.418-4.333V89.207c26.668,11.458,74.418,16.125,118.918,45.625s50.417,34.75,50.417,34.75l2.922,50.668
		L184.999,227.823"/>
</g>
<g id="fourth_front">
	<linearGradient id="SVGID_2_" gradientUnits="userSpaceOnUse" x1="15.0186" y1="96.5947" x2="183.6255" y2="111.3459">
		<stop  offset="0" style="stop-color:#48BD9D"/>
		<stop  offset="0.1429" style="stop-color:#4AAB94"/>
		<stop  offset="0.3956" style="stop-color:#477276"/>
		<stop  offset="0.6998" style="stop-color:#455E6B"/>
		<stop  offset="1" style="stop-color:#381647"/>
	</linearGradient>
	<path fill="url(#SVGID_2_)" d="M15.664,89.207c1.667-4.374,20.418-22.375,33.918-22.375c9,0,27.625,11.188,63.625,11.188
		c0,0,49.875-0.188,66.625-12.688l3.75,46.5l-2.5,2.25c-18.182,7.809-41.815,11.54-63.875,11.54
		c-27.75,0-54.625-14.043-61.483-14.043c-9.017,0-35.307,17.535-40.06,30.754V89.207z"/>
</g>
<g id="fifth_back">
	<linearGradient id="SVGID_3_" gradientUnits="userSpaceOnUse" x1="134.3618" y1="57.7852" x2="194.6791" y2="92.6094">
		<stop  offset="0" style="stop-color:#3C5165"/>
		<stop  offset="1" style="stop-color:#381647"/>
	</linearGradient>
	<path fill="url(#SVGID_3_)" d="M138.02,82.519c0,17.125,21.125,20.125,29.75,22s13.729,3.48,15.812,7.312V53.499l-45.688-1.833
		L138.02,82.519"/>
</g>
<g id="fifth_front">
	<linearGradient id="SVGID_4_" gradientUnits="userSpaceOnUse" x1="133.1611" y1="52.6265" x2="333.6965" y2="87.9863">
		<stop  offset="0" style="stop-color:#3C5165"/>
		<stop  offset="0.7635" style="stop-color:#57AFB0"/>
		<stop  offset="1" style="stop-color:#5CC5C1"/>
	</linearGradient>
	<path fill="url(#SVGID_4_)" d="M138.02,82.519l-0.125-54.812c0,0,0.312-16.062,9-16.062c10.937,0,20.271,43.021,70.438,43.021
		c43.833,0,31.499,11.501,86.999,11.501c0,0,19.003,0.498,21.419,0.498s2.625,0.5,2.625,2.625s0,48.876,0,48.876
		c-6.254,8.101-69.377-6.333-90.376-6.333c-70.667,0-79.167-35.501-85.5-35.501c-8.167,0-12.236,15.091-13.104,13.126
		C138.737,87.967,138.16,87.175,138.02,82.519z"/>
</g>
<g id="sixth_front">
	<linearGradient id="SVGID_5_" gradientUnits="userSpaceOnUse" x1="188.1655" y1="69.1411" x2="327.7686" y2="119.9525">
		<stop  offset="0" style="stop-color:#80CFD4"/>
		<stop  offset="1" style="stop-color:#5CC5C1"/>
	</linearGradient>
	<path fill="url(#SVGID_5_)" d="M326.832,66.957c0,0,1.594,0.406,0,1.406s-45.499,18.968-77.166,18.635s-51.501-25.917-52.167-43.5
		v65.334c0,0,13.833,31.875,54.583,31.875c33,0,74.291-19.375,75.458-20.875s0.667-1.625,0.667-3.375s0.106-46.75,0.106-46.75
		S328.832,66.957,326.832,66.957z"/>
</g>
<g id="second_back_2">
	<linearGradient id="SVGID_6_" gradientUnits="userSpaceOnUse" x1="167.9033" y1="207.5786" x2="196.0808" y2="183.9349">
		<stop  offset="0" style="stop-color:#47BB86"/>
		<stop  offset="1" style="stop-color:#54BF99"/>
	</linearGradient>
	<path fill="url(#SVGID_6_)" d="M165.832,174.999c-0.75,5.667,9.125,17.646,10.667,20.167c2.015,3.295,10,12.834,9.833,21.333
		c-0.141,7.166-0.416,8.333-1.333,10.833s3.583-5,3.583-12.333s0-40,0-40l-18.417-3.833L165.832,174.999"/>
</g>
<g id="second_back_1">
	<linearGradient id="SVGID_7_" gradientUnits="userSpaceOnUse" x1="219.3467" y1="229.8491" x2="243.876" y2="238.7771">
		<stop  offset="0" style="stop-color:#41B16F"/>
		<stop  offset="1" style="stop-color:#43B67C"/>
	</linearGradient>
	<path fill="url(#SVGID_7_)" d="M228.113,260.316v-54.553c0,0,11.344,9.568,13.344,19.068s1.375,19.75-2.125,25.5
		S228.113,260.316,228.113,260.316"/>
</g>
<g id="second_front">
	<linearGradient id="SVGID_8_" gradientUnits="userSpaceOnUse" x1="153.4961" y1="158.4927" x2="255.7124" y2="195.6964">
		<stop  offset="0" style="stop-color:#47BB86"/>
		<stop  offset="1" style="stop-color:#43B67B"/>
	</linearGradient>
	<path fill="url(#SVGID_8_)" d="M240.832,236.582c0,0-0.008-42-0.125-56.125c1.624-18.459-37.875-57.125-68.375-59.625
		c-3.834-0.334-6.5-0.216-6.5,6.166v48.001C175.832,168.457,238.957,193.332,240.832,236.582"/>
</g>
<g id="First_back">
	<linearGradient id="SVGID_9_" gradientUnits="userSpaceOnUse" x1="224.4375" y1="239.4888" x2="436.7876" y2="202.0457">
		<stop  offset="0" style="stop-color:#40B16E"/>
		<stop  offset="1" style="stop-color:#3EA348"/>
	</linearGradient>
	<path fill="url(#SVGID_9_)" d="M432.666,178.665v45.999c-8.496,7.834-144.621,33.836-200.665,37.502
		c-1.528,0.104-3.888-1.334-3.888-1.85c0,0,12.719-12.693,12.719-22.568s-0.1-28.916-0.1-28.916
		C293.857,207.832,363.832,195.915,432.666,178.665z"/>
</g>
<g id="first_front">
	<linearGradient id="SVGID_10_" gradientUnits="userSpaceOnUse" x1="382.8438" y1="193.3921" x2="436.3119" y2="202.82">
		<stop  offset="0" style="stop-color:#3EA248"/>
		<stop  offset="1" style="stop-color:#3EA348"/>
	</linearGradient>
	<path fill="url(#SVGID_10_)" d="M432.666,223.499v-44.833c0-4.998-5.83-2.665-12.667-5.333c-4.848-0.389-33.5-0.667-33.5-0.667
		v45.167c0,0,4.333,5.667,22.083,5.667S430.5,222.666,432.666,223.499z"/>
</g>
<g id="seventh">
	<linearGradient id="SVGID_11_" gradientUnits="userSpaceOnUse" x1="175.6045" y1="79.6226" x2="345.7447" y2="177.853">
		<stop  offset="0" style="stop-color:#89D2D7"/>
		<stop  offset="1" style="stop-color:#9CD8DB"/>
	</linearGradient>
	<path fill="url(#SVGID_11_)" d="M197.499,43.498c0,0,3.666-10.831,6.666-10.831L205.331,39l0.126,27.957c0,0,0,2.75,1.5,5
		s38.625,74.875,106.375,84.375c0,0,10,1,11.5,1.125s1.875,1.625,1.875,2.875s0.25,49.625,0.25,49.625s0.125,1-0.812,1
		c-0.334,0-31.55-0.106-52.562-11.375c-37.958-20.356-76.083-75-76.083-89.75V43.498z"/>
</g>
</svg>
